<?xml version="1.0" encoding="utf-8"?>
<!-- Generator: Adobe Illustrator 22.0.0, SVG Export Plug-In . SVG Version: 6.00 Build 0)  -->
<svg version="1.1" id="Layer_1" xmlns="http://www.w3.org/2000/svg" xmlns:xlink="http://www.w3.org/1999/xlink" x="0px" y="0px"
	 viewBox="0 0 150.7 99.3" style="enable-background:new 0 0 150.7 99.3;" xml:space="preserve">
<style type="text/css">
	.st0{display:none;}
	.st1{fill:#0061AF;}
	.st2{fill:#009B4B;}
	.st3{fill:#5BC9E3;}
</style>
<path id="_x2F_" class="st0" d="M95.3,5.1l5.2,8.1L72.9,91.5H61l-6.5-9.1L83.2,5.2L95.3,5.1z M56.8,82.2h8.5L91.8,6.7h-7.9
	L56.8,82.2z M89,8.8L76.2,44.9c-1.1-0.7-2.4-0.7-3.7,0L85.4,8.8H89z"/>
<path id="_x3C_" class="st1" d="M95.5,6.2l-4.4,7.1c0,0-73.6,45.4-73.7,46.5C17.3,61,62.6,70.5,62.6,70.5l-4.9,6.8
	c0,0-50.4-6.6-53.8-10.7C2.7,65,1.4,60.6,9.4,55.9C25,45,95.5,6.2,95.5,6.2z"/>
<path id="_x3E_" class="st2" d="M51.4,92l4.4-7.1c0,0,73.6-45.4,73.7-46.5c0.1-1.1-45.2-10.6-45.2-10.6l4.9-6.8
	c0,0,50.4,6.6,53.8,10.7c1.3,1.6,2.6,6.1-5.4,10.8C121.9,53.3,51.4,92,51.4,92z"/>
<path id="_x3E__1_" class="st0" d="M54.5,89l5.9-8c0,0,72.2-44.6,72.3-45.7c0.1-1.1-38.8-21.4-38.8-21.4l4.9-6.8
	c0,0,44,17.4,47.3,21.5c1.3,1.6,2.6,6.1-5.4,10.8C125,50.2,54.5,89,54.5,89z"/>
<path id="_x2F__1_" class="st3" d="M57.8,86.2c-1.6,2.4-4.3,7.6-10.1,6.7c-1.1-0.2-2.2-0.9-2-2.1c0.3-2.1,4-8.2,5.2-10.3l36.9-63.9
	c7-12.1,8.4-12.6,15.6-11.4c1.6,0.3,4.4,1.4,4,3.7c-0.2,1.3-2,3.6-4.1,6.9L57.8,86.2z"/>
</svg>
