<?xml version="1.0" encoding="UTF-8" standalone="no"?>
<svg
   xmlns:dc="http://purl.org/dc/elements/1.1/"
   xmlns:cc="http://creativecommons.org/ns#"
   xmlns:rdf="http://www.w3.org/1999/02/22-rdf-syntax-ns#"
   xmlns:svg="http://www.w3.org/2000/svg"
   xmlns="http://www.w3.org/2000/svg"
   xmlns:sodipodi="http://sodipodi.sourceforge.net/DTD/sodipodi-0.dtd"
   xmlns:inkscape="http://www.inkscape.org/namespaces/inkscape"
   height="25"
   id="Layer_1"
   version="1.1"
   viewBox="0 0 25 25"
   width="25"
   xml:space="preserve"
   inkscape:version="0.91 r13725"
   sodipodi:docname="facebookSM_Icon.svg"><metadata
     id="metadata9"><rdf:RDF><cc:Work
         rdf:about=""><dc:format>image/svg+xml</dc:format><dc:type
           rdf:resource="http://purl.org/dc/dcmitype/StillImage" /><dc:title></dc:title></cc:Work></rdf:RDF></metadata><defs
     id="defs7" /><sodipodi:namedview
     pagecolor="#ffffff"
     bordercolor="#666666"
     borderopacity="1"
     objecttolerance="10"
     gridtolerance="10"
     guidetolerance="10"
     inkscape:pageopacity="0"
     inkscape:pageshadow="2"
     inkscape:window-width="1920"
     inkscape:window-height="1017"
     id="namedview5"
     showgrid="false"
     inkscape:zoom="9.9628179"
     inkscape:cx="41.004309"
     inkscape:cy="30.956051"
     inkscape:window-x="-8"
     inkscape:window-y="-8"
     inkscape:window-maximized="1"
     inkscape:current-layer="Layer_1" /><path
     d="M 12.5,25 C 5.5966665,25 0,19.403334 0,12.5 0,5.59625 5.5966665,0 12.5,0 19.403333,0 25,5.59625 25,12.5 25,19.403334 19.403333,25 12.5,25 Z"
     style="clip-rule:evenodd;fill:#ffffff;fill-rule:evenodd"
     id="path3"
     inkscape:connector-curvature="0"
     sodipodi:nodetypes="sssss" /><path
     style="color:#000000;clip-rule:nonzero;display:inline;overflow:visible;visibility:visible;opacity:1;isolation:auto;mix-blend-mode:normal;color-interpolation:sRGB;color-interpolation-filters:linearRGB;solid-color:#000000;solid-opacity:1;fill:#135fce;fill-opacity:1;fill-rule:nonzero;stroke:none;stroke-width:1;stroke-linecap:butt;stroke-linejoin:miter;stroke-miterlimit:4;stroke-dasharray:none;stroke-dashoffset:0;stroke-opacity:1;color-rendering:auto;image-rendering:auto;shape-rendering:auto;text-rendering:auto;enable-background:accumulate"
     d="m 10.743002,15.887579 0,-3.408508 -0.690066,0 -0.690066,0 0,-1.15011 0,-1.15011 0.690066,0 0.690066,0 0.0011,-0.763254 c 0.0023,-1.657704 0.181932,-2.374791 0.735653,-2.937431 0.410078,-0.416681 0.968154,-0.646887 1.772599,-0.731198 0.218521,-0.0229 0.844285,-0.04196 1.390587,-0.04237 l 0.993277,-6.99e-4 0,1.144179 0,1.144179 -0.76484,0.02096 c -0.650059,0.01781 -0.793884,0.03381 -0.958382,0.106574 -0.331183,0.146498 -0.345001,0.19209 -0.360459,1.189287 l -0.01348,0.869793 1.048583,0 c 0.81049,0 1.048792,0.01187 1.049508,0.05228 5e-4,0.02876 -0.05016,0.546302 -0.112596,1.150111 l -0.113523,1.097831 -0.932957,0 -0.932959,0 0,3.408507 0,3.408507 -1.401043,0 -1.401042,0 0,-3.408507 z"
     id="path4137"
     inkscape:connector-curvature="0" /></svg>