<?xml version="1.0" encoding="utf-8"?>
<!-- Generator: Adobe Illustrator 21.1.0, SVG Export Plug-In . SVG Version: 6.00 Build 0)  -->
<svg version="1.1" id="Layer_1" xmlns="http://www.w3.org/2000/svg" xmlns:xlink="http://www.w3.org/1999/xlink" x="0px" y="0px"
	 viewBox="0 0 139.9 54" style="enable-background:new 0 0 139.9 54;" xml:space="preserve">
<style type="text/css">
	.st0{fill:#B2B2B2;}
	.st1{fill:#F9F9F9;}
</style>
<rect x="8" y="18.4" class="st0" width="17.3" height="23"/>
<rect x="80" y="16.7" class="st0" width="15.7" height="24.7"/>
<polygon class="st0" points="13.6,2.5 23.2,2.5 34.1,52.5 23.9,52.5 "/>
<polygon class="st1" points="0.9,52.5 10.4,52.5 21.4,2.5 11.1,2.5 "/>
<polygon class="st0" points="85,2.5 94.6,2.5 105.5,52.5 95.3,52.5 "/>
<polygon class="st1" points="72.3,52.6 81.8,52.6 92.8,2.5 82.5,2.5 "/>
<rect x="116.5" y="9" class="st1" width="6.9" height="43.5"/>
<polygon class="st0" points="116.5,10.1 116.5,21.1 139,10 137.3,2.8 "/>
<polygon class="st1" points="100.5,2.5 100.5,10 139,10 139,2.5 "/>
<path class="st1" d="M36,27.7c0-5.8,0.2-9.6,0.5-11.6c0.4-2,0.9-3.5,1.6-4.7c1.2-2.3,3-4.3,5.6-6.1c2.5-1.8,5.7-2.7,9.5-2.8
	c3.8,0,7,1,9.6,2.8c2.5,1.8,4.4,3.8,5.5,6.1c0.8,1.2,1.4,2.8,1.7,4.7c0.3,2,0.4,5.8,0.4,11.6c0,5.7-0.1,9.5-0.4,11.5
	s-0.9,3.6-1.7,4.8c-1.1,2.3-2.9,4.3-5.5,6.1s-5.7,2.8-9.6,2.9c-3.8-0.1-6.9-1-9.5-2.9c-2.6-1.7-4.4-3.8-5.6-6.1
	c-0.4-0.7-0.7-1.5-1-2.1c-0.3-0.7-0.5-1.6-0.7-2.7C36.1,37.2,36,33.4,36,27.7z"/>
</svg>
