<?xml version="1.0" encoding="UTF-8" standalone="no"?>
<svg
   xmlns:dc="http://purl.org/dc/elements/1.1/"
   xmlns:cc="http://creativecommons.org/ns#"
   xmlns:rdf="http://www.w3.org/1999/02/22-rdf-syntax-ns#"
   xmlns:svg="http://www.w3.org/2000/svg"
   xmlns="http://www.w3.org/2000/svg"
   xmlns:sodipodi="http://sodipodi.sourceforge.net/DTD/sodipodi-0.dtd"
   xmlns:inkscape="http://www.inkscape.org/namespaces/inkscape"
   height="25"
   id="Layer_1"
   version="1.1"
   viewBox="0 0 25 25"
   width="25"
   xml:space="preserve"
   inkscape:version="0.91 r13725"
   sodipodi:docname="instagramSM_Icon.svg"><metadata
     id="metadata9"><rdf:RDF><cc:Work
         rdf:about=""><dc:format>image/svg+xml</dc:format><dc:type
           rdf:resource="http://purl.org/dc/dcmitype/StillImage" /><dc:title></dc:title></cc:Work></rdf:RDF></metadata><defs
     id="defs7" /><sodipodi:namedview
     pagecolor="#ffffff"
     bordercolor="#666666"
     borderopacity="1"
     objecttolerance="10"
     gridtolerance="10"
     guidetolerance="10"
     inkscape:pageopacity="0"
     inkscape:pageshadow="2"
     inkscape:window-width="1920"
     inkscape:window-height="1017"
     id="namedview5"
     showgrid="false"
     inkscape:zoom="28.179104"
     inkscape:cx="14.030748"
     inkscape:cy="14.283377"
     inkscape:window-x="-8"
     inkscape:window-y="-8"
     inkscape:window-maximized="1"
     inkscape:current-layer="Layer_1" /><circle
     style="color:#000000;clip-rule:nonzero;display:inline;overflow:visible;visibility:visible;opacity:1;isolation:auto;mix-blend-mode:normal;color-interpolation:sRGB;color-interpolation-filters:linearRGB;solid-color:#000000;solid-opacity:1;fill:#ffffff;fill-opacity:1;fill-rule:nonzero;stroke:none;stroke-width:1;stroke-linecap:butt;stroke-linejoin:miter;stroke-miterlimit:4;stroke-dasharray:none;stroke-dashoffset:0;stroke-opacity:1;color-rendering:auto;image-rendering:auto;shape-rendering:auto;text-rendering:auto;enable-background:accumulate"
     id="path4137"
     cx="12.5"
     cy="12.5"
     r="12.5" /><path
     style="color:#000000;clip-rule:nonzero;display:inline;overflow:visible;visibility:visible;opacity:1;isolation:auto;mix-blend-mode:normal;color-interpolation:sRGB;color-interpolation-filters:linearRGB;solid-color:#000000;solid-opacity:1;fill:#135fce;fill-opacity:1;fill-rule:nonzero;stroke:none;stroke-width:1;stroke-linecap:butt;stroke-linejoin:miter;stroke-miterlimit:4;stroke-dasharray:none;stroke-dashoffset:0;stroke-opacity:1;color-rendering:auto;image-rendering:auto;shape-rendering:auto;text-rendering:auto;enable-background:accumulate"
     d="M 7.1110593,18.772174 C 6.7300814,18.652209 6.3992005,18.334521 6.2521476,17.947509 c -0.074285,-0.195504 -0.07775,-0.438456 -0.07775,-5.451288 l 0,-5.246665 0.089636,-0.239574 C 6.3711939,6.72357 6.644768,6.432905 6.9481072,6.283173 l 0.2091104,-0.10322 5.3323294,0 5.332325,0 0.235941,0.115867 c 0.275275,0.135185 0.549417,0.415357 0.677417,0.692319 l 0.09037,0.195546 0,5.311416 0,5.311416 -0.09037,0.195546 c -0.128,0.276962 -0.402142,0.557134 -0.677417,0.692319 l -0.235941,0.115867 -5.269592,0.008 c -4.2087124,0.0064 -5.3041457,-0.0029 -5.4412207,-0.04606 z M 17.211905,17.419597 c 0.07855,-0.04022 0.177487,-0.138938 0.21985,-0.219377 0.07297,-0.138559 0.07645,-0.298074 0.06628,-3.032107 l -0.01075,-2.885855 -0.622054,-0.0116 -0.622058,-0.0116 0.02592,0.09525 c 0.195971,0.719726 0.199775,1.582083 0.0098,2.219326 -0.421217,1.412854 -1.553413,2.46646 -2.977679,2.770982 -0.210754,0.04506 -0.512788,0.07003 -0.832596,0.06884 -1.797121,-0.0067 -3.3142712,-1.19837 -3.7905546,-2.977358 C 8.5566718,12.982685 8.5454593,12.111925 8.6552718,11.666516 8.7636301,11.22703 8.8090384,11.261345 8.1190926,11.261345 l -0.6064208,0 0,2.939157 c 0,3.246817 -0.017208,3.039275 0.2662708,3.212129 0.1268875,0.07737 0.2761708,0.07991 4.7105664,0.08 4.277667,8.4e-5 4.588942,-0.0047 4.722358,-0.07303 z M 13.37603,14.930099 c 0.660308,-0.255658 1.139708,-0.689899 1.4303,-1.295568 0.215117,-0.448361 0.276429,-0.704657 0.275571,-1.151944 -0.0021,-1.176982 -0.796779,-2.197453 -1.942442,-2.494845 -0.317329,-0.08237 -0.977791,-0.08366 -1.289346,-0.0025 -0.822645,0.214271 -1.545908,0.898011 -1.814404,1.715246 -0.091117,0.277341 -0.1101706,0.413277 -0.1113831,0.794621 -0.00125,0.405806 0.013292,0.502174 0.1238211,0.81738 0.0689,0.196534 0.195779,0.463543 0.281941,0.593351 0.228292,0.343941 0.642342,0.71218 0.998938,0.888419 0.477287,0.235889 0.651579,0.271924 1.244167,0.257238 0.443137,-0.01098 0.565437,-0.02947 0.802837,-0.12139 z m 3.835875,-5.582181 c 0.256237,-0.131184 0.2963,-0.272642 0.2963,-1.04618 0,-1.109493 -0.02917,-1.138574 -1.141729,-1.138807 -1.122459,-2.36e-4 -1.116667,-0.0061 -1.116667,1.130968 0,1.118597 0.0062,1.12488 1.108288,1.126255 0.595733,7.5e-4 0.734129,-0.01097 0.853808,-0.07224 z"
     id="path4139"
     inkscape:connector-curvature="0" /></svg>