<?xml version="1.0" encoding="UTF-8" standalone="no"?>
<svg
   xmlns:dc="http://purl.org/dc/elements/1.1/"
   xmlns:cc="http://creativecommons.org/ns#"
   xmlns:rdf="http://www.w3.org/1999/02/22-rdf-syntax-ns#"
   xmlns:svg="http://www.w3.org/2000/svg"
   xmlns="http://www.w3.org/2000/svg"
   xmlns:sodipodi="http://sodipodi.sourceforge.net/DTD/sodipodi-0.dtd"
   xmlns:inkscape="http://www.inkscape.org/namespaces/inkscape"
   enable-background="new 0 0 512 512"
   id="Layer_1"
   version="1.1"
   viewBox="0 0 25 25"
   xml:space="preserve"
   inkscape:version="0.91 r13725"
   sodipodi:docname="flickrSM_Icon.svg"
   width="25"
   height="25"><metadata
     id="metadata13"><rdf:RDF><cc:Work
         rdf:about=""><dc:format>image/svg+xml</dc:format><dc:type
           rdf:resource="http://purl.org/dc/dcmitype/StillImage" /><dc:title></dc:title></cc:Work></rdf:RDF></metadata><defs
     id="defs11" /><sodipodi:namedview
     pagecolor="#ffffff"
     bordercolor="#666666"
     borderopacity="1"
     objecttolerance="10"
     gridtolerance="10"
     guidetolerance="10"
     inkscape:pageopacity="0"
     inkscape:pageshadow="2"
     inkscape:window-width="1920"
     inkscape:window-height="1017"
     id="namedview9"
     showgrid="false"
     inkscape:zoom="7.375"
     inkscape:cx="-29.124201"
     inkscape:cy="32.050407"
     inkscape:window-x="-8"
     inkscape:window-y="-8"
     inkscape:window-maximized="1"
     inkscape:current-layer="Layer_1" /><circle
     style="color:#000000;clip-rule:nonzero;display:inline;overflow:visible;visibility:visible;opacity:1;isolation:auto;mix-blend-mode:normal;color-interpolation:sRGB;color-interpolation-filters:linearRGB;solid-color:#000000;solid-opacity:1;fill:#ffffff;fill-opacity:1;fill-rule:nonzero;stroke:none;stroke-width:1;stroke-linecap:butt;stroke-linejoin:miter;stroke-miterlimit:4;stroke-dasharray:none;stroke-dashoffset:0;stroke-opacity:1;color-rendering:auto;image-rendering:auto;shape-rendering:auto;text-rendering:auto;enable-background:accumulate"
     id="path4141"
     cx="12.5"
     cy="12.5"
     r="12.5" /><g
     id="g3"
     transform="matrix(0.03796171,0,0,0.03796171,2.6687481,3.59393)"><path
       d="M 393.3,353 C 339.2,353 293.8,316.5 280.6,263.1 265.9,203.6 299,141.8 356,122.2 416.8,101.3 482.6,135.5 502.4,198.5 523.2,265 483.9,335 417,350.4 c -8.1,1.9 -16.3,3 -23.7,2.6 z"
       id="path5"
       inkscape:connector-curvature="0"
       style="fill:#fe3c98" /><path
       d="m 10,234.6 c 0.1,-55.7 37.7,-104 90.1,-115.6 56,-12.4 110.8,17.4 132.3,71.9 22.7,57.6 -3.1,124.7 -58,151.1 C 113,371.4 39.5,340.4 17.1,275.7 12.3,262.4 9.7,248.7 10,234.6 Z"
       id="path7"
       inkscape:connector-curvature="0"
       style="fill:#016adc" /></g></svg>