<?xml version="1.0" encoding="UTF-8" standalone="no"?>
<svg
   xmlns:dc="http://purl.org/dc/elements/1.1/"
   xmlns:cc="http://creativecommons.org/ns#"
   xmlns:rdf="http://www.w3.org/1999/02/22-rdf-syntax-ns#"
   xmlns:svg="http://www.w3.org/2000/svg"
   xmlns="http://www.w3.org/2000/svg"
   xmlns:sodipodi="http://sodipodi.sourceforge.net/DTD/sodipodi-0.dtd"
   xmlns:inkscape="http://www.inkscape.org/namespaces/inkscape"
   height="25"
   id="Layer_1"
   version="1.1"
   viewBox="0 0 25 25"
   width="25"
   xml:space="preserve"
   inkscape:version="0.91 r13725"
   sodipodi:docname="linkedinsm_Icon.svg"><metadata
     id="metadata9"><rdf:RDF><cc:Work
         rdf:about=""><dc:format>image/svg+xml</dc:format><dc:type
           rdf:resource="http://purl.org/dc/dcmitype/StillImage" /><dc:title></dc:title></cc:Work></rdf:RDF></metadata><defs
     id="defs7" /><sodipodi:namedview
     pagecolor="#ffffff"
     bordercolor="#666666"
     borderopacity="1"
     objecttolerance="10"
     gridtolerance="10"
     guidetolerance="10"
     inkscape:pageopacity="0"
     inkscape:pageshadow="2"
     inkscape:window-width="1920"
     inkscape:window-height="1017"
     id="namedview5"
     showgrid="false"
     inkscape:zoom="3.5223881"
     inkscape:cx="-45.387475"
     inkscape:cy="20.590255"
     inkscape:window-x="-8"
     inkscape:window-y="-8"
     inkscape:window-maximized="1"
     inkscape:current-layer="Layer_1" /><circle
     style="color:#000000;clip-rule:nonzero;display:inline;overflow:visible;visibility:visible;opacity:1;isolation:auto;mix-blend-mode:normal;color-interpolation:sRGB;color-interpolation-filters:linearRGB;solid-color:#000000;solid-opacity:1;fill:#ffffff;fill-opacity:1;fill-rule:nonzero;stroke:none;stroke-width:1;stroke-linecap:butt;stroke-linejoin:miter;stroke-miterlimit:4;stroke-dasharray:none;stroke-dashoffset:0;stroke-opacity:1;color-rendering:auto;image-rendering:auto;shape-rendering:auto;text-rendering:auto;enable-background:accumulate"
     id="path4151"
     cx="12.5"
     cy="12.5"
     r="12.5" /><g
     id="g4185"
     transform="matrix(0.41666667,0,0,0.41666667,49.643361,4.219634)"><path
       inkscape:connector-curvature="0"
       id="path4137"
       d="m -102.38679,11.56291 c -1.5639,-0.512362 -2.56526,-1.8367742 -2.54794,-3.3699322 0.0222,-1.965393 1.59265,-3.377996 3.75543,-3.377996 1.767397,0 3.014927,0.816907 3.545937,2.321954 0.56778,1.609244 -0.141,3.3608852 -1.68037,4.1528312 -0.63785,0.328148 -2.421307,0.486668 -3.073057,0.273143 z"
       style="color:#000000;clip-rule:nonzero;display:inline;overflow:visible;visibility:visible;opacity:1;isolation:auto;mix-blend-mode:normal;color-interpolation:sRGB;color-interpolation-filters:linearRGB;solid-color:#000000;solid-opacity:1;fill:#135fce;fill-opacity:1;fill-rule:nonzero;stroke:none;stroke-width:1;stroke-linecap:butt;stroke-linejoin:miter;stroke-miterlimit:4;stroke-dasharray:none;stroke-dashoffset:0;stroke-opacity:1;color-rendering:auto;image-rendering:auto;shape-rendering:auto;text-rendering:auto;enable-background:accumulate" /><path
       inkscape:connector-curvature="0"
       id="path4139"
       d="m -104.5887,24.745927 0,-10.184851 3.37129,0 3.371297,0 0,10.184851 0,10.184852 -3.371297,0 -3.37129,0 0,-10.184852 z"
       style="color:#000000;clip-rule:nonzero;display:inline;overflow:visible;visibility:visible;opacity:1;isolation:auto;mix-blend-mode:normal;color-interpolation:sRGB;color-interpolation-filters:linearRGB;solid-color:#000000;solid-opacity:1;fill:#135fce;fill-opacity:1;fill-rule:nonzero;stroke:none;stroke-width:1;stroke-linecap:butt;stroke-linejoin:miter;stroke-miterlimit:4;stroke-dasharray:none;stroke-dashoffset:0;stroke-opacity:1;color-rendering:auto;image-rendering:auto;shape-rendering:auto;text-rendering:auto;enable-background:accumulate" /><path
       inkscape:connector-curvature="0"
       id="path4141"
       d="m -94.013493,24.745927 0,-10.184851 3.36985,0 3.369857,0 0.01918,1.466714 0.01918,1.466715 0.268091,-0.403921 c 0.900459,-1.356681 2.366181,-2.380035 4.00012,-2.792848 0.627935,-0.158648 2.957897,-0.177411 3.609967,-0.02907 3.203176,0.728691 5.100911,2.855738 5.800874,6.501823 0.144824,0.754385 0.150971,1.014378 0.176617,7.470938 l 0.02657,6.689354 -3.372053,0 -3.372053,0 -0.02174,-6.157045 c -0.02142,-6.065133 -0.02404,-6.165154 -0.175387,-6.700291 -0.511658,-1.809132 -1.532135,-2.637072 -3.250323,-2.637072 -0.810191,0 -1.365474,0.153262 -1.979238,0.546285 -0.47293,0.302841 -1.017858,0.904793 -1.302456,1.438755 -0.457757,0.85884 -0.444472,0.638099 -0.444472,7.384979 l 0,6.124389 -3.371294,0 -3.37129,0 0,-10.184852 z"
       style="color:#000000;clip-rule:nonzero;display:inline;overflow:visible;visibility:visible;opacity:1;isolation:auto;mix-blend-mode:normal;color-interpolation:sRGB;color-interpolation-filters:linearRGB;solid-color:#000000;solid-opacity:1;fill:#135fce;fill-opacity:1;fill-rule:nonzero;stroke:none;stroke-width:1;stroke-linecap:butt;stroke-linejoin:miter;stroke-miterlimit:4;stroke-dasharray:none;stroke-dashoffset:0;stroke-opacity:1;color-rendering:auto;image-rendering:auto;shape-rendering:auto;text-rendering:auto;enable-background:accumulate" /></g></svg>