<?xml version="1.0" encoding="utf-8"?>
<!-- Generator: Adobe Illustrator 21.1.0, SVG Export Plug-In . SVG Version: 6.00 Build 0)  -->
<svg version="1.1" id="Layer_1" xmlns="http://www.w3.org/2000/svg" xmlns:xlink="http://www.w3.org/1999/xlink" x="0px" y="0px"
	 viewBox="0 0 139.9 54" style="enable-background:new 0 0 139.9 54;" xml:space="preserve">
<style type="text/css">
	.st0{display:none;}
	.st1{fill:#0A619A;}
	.st2{fill:#4CB9D4;}
</style>
<g id="muli">
	<rect x="-21.2" y="-8.9" class="st0" width="177.3" height="78.5"/>
	<rect x="7.9" y="18" class="st1" width="17.3" height="23"/>
	<rect x="79.9" y="16.3" class="st1" width="15.7" height="24.7"/>
	<polygon class="st1" points="13.6,2.1 23.1,2.1 34.1,52.1 23.8,52.1 	"/>
	<polygon class="st2" points="0.9,52.1 10.4,52.1 21.3,2.1 11.1,2.1 	"/>
	<polygon class="st1" points="85,2.1 94.5,2.1 105.5,52.1 95.2,52.1 	"/>
	<polygon class="st2" points="72.2,52.2 81.8,52.2 92.7,2.1 82.5,2.1 	"/>
	<rect x="116.5" y="8.6" class="st2" width="6.9" height="43.5"/>
	<polygon class="st1" points="116.5,9.7 116.5,20.7 139,9.6 137.2,2.4 	"/>
	<polygon class="st2" points="100.4,2.1 100.4,9.6 139,9.6 139,2.1 	"/>
	<path class="st2" d="M35.9,27.3c0-5.8,0.2-9.6,0.5-11.6c0.4-2,0.9-3.5,1.6-4.7c1.2-2.3,3-4.3,5.6-6.1c2.5-1.8,5.7-2.7,9.5-2.8
		c3.8,0,7,1,9.6,2.8c2.5,1.8,4.4,3.8,5.5,6.1c0.8,1.2,1.4,2.8,1.7,4.7c0.3,2,0.4,5.8,0.4,11.6c0,5.7-0.1,9.5-0.4,11.5
		s-0.9,3.6-1.7,4.8c-1.1,2.3-2.9,4.3-5.5,6.1c-2.6,1.8-5.7,2.8-9.6,2.9c-3.8-0.1-6.9-1-9.5-2.9C41,48,39.2,45.9,38,43.6
		c-0.4-0.7-0.7-1.5-1-2.1c-0.3-0.7-0.5-1.6-0.7-2.7C36.1,36.8,35.9,33,35.9,27.3z"/>
</g>
</svg>
