<?xml version="1.0" encoding="utf-8"?>
<!-- Generator: Adobe Illustrator 22.1.0, SVG Export Plug-In . SVG Version: 6.00 Build 0)  -->
<svg version="1.1"
	 id="Layer_1" inkscape:version="0.91 r13725" sodipodi:docname="instagramSM_Icon.svg" xmlns:cc="http://creativecommons.org/ns#" xmlns:dc="http://purl.org/dc/elements/1.1/" xmlns:inkscape="http://www.inkscape.org/namespaces/inkscape" xmlns:rdf="http://www.w3.org/1999/02/22-rdf-syntax-ns#" xmlns:sodipodi="http://sodipodi.sourceforge.net/DTD/sodipodi-0.dtd" xmlns:svg="http://www.w3.org/2000/svg"
	 xmlns="http://www.w3.org/2000/svg" xmlns:xlink="http://www.w3.org/1999/xlink" x="0px" y="0px" viewBox="0 0 25 25"
	 style="enable-background:new 0 0 25 25;" xml:space="preserve">
<style type="text/css">
	.st0{fill:#FFFFFF;}
	.st1{fill:#517FA6;}
</style>
<sodipodi:namedview  bordercolor="#666666" borderopacity="1" gridtolerance="10" guidetolerance="10" id="namedview5" inkscape:current-layer="Layer_1" inkscape:cx="14.030748" inkscape:cy="14.283377" inkscape:pageopacity="0" inkscape:pageshadow="2" inkscape:window-height="1017" inkscape:window-maximized="1" inkscape:window-width="1920" inkscape:window-x="-8" inkscape:window-y="-8" inkscape:zoom="28.179104" objecttolerance="10" pagecolor="#ffffff" showgrid="false">
	</sodipodi:namedview>
<circle id="path4137" class="st0" cx="12.5" cy="12.5" r="12.5"/>
<path id="path4139" inkscape:connector-curvature="0" class="st1" d="M7.1,18.8c-0.4-0.1-0.7-0.4-0.9-0.8c-0.1-0.2-0.1-0.4-0.1-5.5
	V7.2L6.3,7c0.1-0.3,0.4-0.6,0.7-0.7l0.2-0.1h5.3h5.3l0.2,0.1c0.3,0.1,0.5,0.4,0.7,0.7l0.1,0.2v5.3v5.3L18.7,18
	c-0.1,0.3-0.4,0.6-0.7,0.7l-0.2,0.1l-5.3,0C8.3,18.8,7.2,18.8,7.1,18.8L7.1,18.8z M17.2,17.4c0.1,0,0.2-0.1,0.2-0.2
	c0.1-0.1,0.1-0.3,0.1-3l0-2.9l-0.6,0l-0.6,0l0,0.1c0.2,0.7,0.2,1.6,0,2.2c-0.4,1.4-1.6,2.5-3,2.8c-0.2,0-0.5,0.1-0.8,0.1
	c-1.8,0-3.3-1.2-3.8-3c-0.1-0.5-0.1-1.3,0-1.8c0.1-0.4,0.2-0.4-0.5-0.4H7.5v2.9c0,3.2,0,3,0.3,3.2c0.1,0.1,0.3,0.1,4.7,0.1
	C16.8,17.5,17.1,17.5,17.2,17.4L17.2,17.4z M13.4,14.9c0.7-0.3,1.1-0.7,1.4-1.3c0.2-0.4,0.3-0.7,0.3-1.2c0-1.2-0.8-2.2-1.9-2.5
	c-0.3-0.1-1-0.1-1.3,0c-0.8,0.2-1.5,0.9-1.8,1.7c-0.1,0.3-0.1,0.4-0.1,0.8c0,0.4,0,0.5,0.1,0.8c0.1,0.2,0.2,0.5,0.3,0.6
	c0.2,0.3,0.6,0.7,1,0.9c0.5,0.2,0.7,0.3,1.2,0.3C13,15,13.1,15,13.4,14.9z M17.2,9.3c0.3-0.1,0.3-0.3,0.3-1c0-1.1,0-1.1-1.1-1.1
	c-1.1,0-1.1,0-1.1,1.1c0,1.1,0,1.1,1.1,1.1C17,9.4,17.1,9.4,17.2,9.3z"/>
</svg>
