<?xml version="1.0" encoding="UTF-8" standalone="no"?>
<svg
   xmlns:dc="http://purl.org/dc/elements/1.1/"
   xmlns:cc="http://creativecommons.org/ns#"
   xmlns:rdf="http://www.w3.org/1999/02/22-rdf-syntax-ns#"
   xmlns:svg="http://www.w3.org/2000/svg"
   xmlns="http://www.w3.org/2000/svg"
   xmlns:sodipodi="http://sodipodi.sourceforge.net/DTD/sodipodi-0.dtd"
   xmlns:inkscape="http://www.inkscape.org/namespaces/inkscape"
   height="25"
   id="Pinterest"
   version="1.0"
   viewBox="0 0 25 25"
   width="25"
   xml:space="preserve"
   inkscape:version="0.91 r13725"
   sodipodi:docname="PinterestSM_Icon.svg"><metadata
     id="metadata29"><rdf:RDF><cc:Work
         rdf:about=""><dc:format>image/svg+xml</dc:format><dc:type
           rdf:resource="http://purl.org/dc/dcmitype/StillImage" /><dc:title></dc:title></cc:Work></rdf:RDF></metadata><defs
     id="defs27" /><sodipodi:namedview
     pagecolor="#ffffff"
     bordercolor="#666666"
     borderopacity="1"
     objecttolerance="10"
     gridtolerance="10"
     guidetolerance="10"
     inkscape:pageopacity="0"
     inkscape:pageshadow="2"
     inkscape:window-width="1920"
     inkscape:window-height="1017"
     id="namedview25"
     showgrid="false"
     inkscape:zoom="14.75"
     inkscape:cx="0.10207566"
     inkscape:cy="8.1853724"
     inkscape:window-x="-8"
     inkscape:window-y="-8"
     inkscape:window-maximized="1"
     inkscape:current-layer="Pinterest" /><style
     type="text/css"
     id="style3">
	.Drop_x0020_Shadow{fill:none;}
	.Round_x0020_Corners_x0020_2_x0020_pt{fill:#FFFFFF;stroke:#000000;stroke-miterlimit:10;}
	.Live_x0020_Reflect_x0020_X{fill:none;}
	.Bevel_x0020_Soft{fill:url(#SVGID_1_);}
	.Dusk{fill:#FFFFFF;}
	.Foliage_GS{fill:#FFDD00;}
	.Pompadour_GS{fill-rule:evenodd;clip-rule:evenodd;fill:#44ADE2;}
	.st0{fill:#BE1E2D;}
	.st1{fill:#FFFFFF;}
</style><linearGradient
     gradientUnits="userSpaceOnUse"
     id="SVGID_1_"
     x1="-47"
     x2="-46.2929"
     y1="-47"
     y2="-46.2929"><stop
       offset="0"
       style="stop-color:#DEDFE3"
       id="stop6" /><stop
       offset="0.1738"
       style="stop-color:#D8D9DD"
       id="stop8" /><stop
       offset="0.352"
       style="stop-color:#C9CACD"
       id="stop10" /><stop
       offset="0.5323"
       style="stop-color:#B4B5B8"
       id="stop12" /><stop
       offset="0.7139"
       style="stop-color:#989A9C"
       id="stop14" /><stop
       offset="0.8949"
       style="stop-color:#797C7E"
       id="stop16" /><stop
       offset="1"
       style="stop-color:#656B6C"
       id="stop18" /></linearGradient><circle
     style="color:#000000;clip-rule:nonzero;display:inline;overflow:visible;visibility:visible;opacity:1;isolation:auto;mix-blend-mode:normal;color-interpolation:sRGB;color-interpolation-filters:linearRGB;solid-color:#000000;solid-opacity:1;fill:#ffffff;fill-opacity:1;fill-rule:nonzero;stroke:none;stroke-width:1;stroke-linecap:butt;stroke-linejoin:miter;stroke-miterlimit:4;stroke-dasharray:none;stroke-dashoffset:0;stroke-opacity:1;color-rendering:auto;image-rendering:auto;shape-rendering:auto;text-rendering:auto;enable-background:accumulate"
     id="path4161"
     cx="12.5"
     cy="12.5"
     r="12.5" /><path
     style="color:#000000;clip-rule:nonzero;display:inline;overflow:visible;visibility:visible;opacity:1;isolation:auto;mix-blend-mode:normal;color-interpolation:sRGB;color-interpolation-filters:linearRGB;solid-color:#000000;solid-opacity:1;fill:#d52033;fill-opacity:1;fill-rule:nonzero;stroke:none;stroke-width:1;stroke-linecap:butt;stroke-linejoin:miter;stroke-miterlimit:4;stroke-dasharray:none;stroke-dashoffset:0;stroke-opacity:1;color-rendering:auto;image-rendering:auto;shape-rendering:auto;text-rendering:auto;enable-background:accumulate"
     d="m 8.4074681,21.582995 c -0.032,-0.103619 -0.134143,-1.170447 -0.17445,-1.822034 -0.01922,-0.310734 -0.008,-0.831921 0.025,-1.158192 0.05968,-0.590575 0.482559,-2.536312 1.13579,-5.225988 0.188667,-0.776837 0.344091,-1.514125 0.345387,-1.638418 0.0013,-0.124294 -0.04137,-0.441628 -0.09481,-0.705187 -0.110789,-0.5464 -0.0864,-1.396738 0.05491,-1.914532 0.197524,-0.723783 0.6426929,-1.294365 1.2071319,-1.547203 0.63082,-0.282573 1.466965,-0.07743 1.81286,0.444776 0.377007,0.569178 0.325795,1.426267 -0.192025,3.213672 -0.471879,1.628825 -0.524126,2.106745 -0.283976,2.597594 0.289513,0.591745 0.885217,0.903721 1.72745,0.904681 0.431475,5.08e-4 0.52087,-0.01887 0.861773,-0.186701 0.435855,-0.214571 1.012547,-0.758582 1.343749,-1.267599 0.511814,-0.786596 0.879451,-1.981922 0.96003,-3.121421 0.02857,-0.403955 0.06587,-0.823447 0.08289,-0.932204 C 17.262008,8.950644 17.105804,8.111215 16.930636,7.673656 16.53726,6.691019 15.572099,5.815202 14.533599,5.498512 13.608215,5.216316 12.138786,5.218662 11.215587,5.503812 9.2798951,6.101686 8.0339981,7.638975 7.8033481,9.714106 c -0.116752,1.050396 0.05973,1.76137 0.621307,2.502965 0.128785,0.170068 0.234154,0.344364 0.234154,0.387325 0,0.09869 -0.148307,0.689743 -0.260025,1.036289 -0.06598,0.204666 -0.122018,0.276779 -0.249658,0.321274 -0.256005,0.08924 -0.778828,-0.196971 -1.276476,-0.698792 -0.452982,-0.456781 -0.861994,-1.185917 -0.987653,-1.760665 -0.03957,-0.181011 -0.137166,-0.416256 -0.216867,-0.522769 -0.142795,-0.190827 -0.144851,-0.207764 -0.140668,-1.158192 0.0038,-0.88068 0.01756,-1.008176 0.157338,-1.466542 0.31897,-1.045928 0.929532,-2.049634 1.75932,-2.892154 1.366301,-1.387264 3.2322299,-2.11322 5.4337659,-2.114053 0.870555,-3.29e-4 1.430617,0.07753 2.108609,0.29314 1.146085,0.364467 2.119518,0.919384 2.80169,1.597137 0.728864,0.724142 1.206298,1.535973 1.52963,2.60099 0.146335,0.482005 0.15444,0.568765 0.155718,1.666667 0.0015,1.32111 -0.07392,1.860568 -0.394168,2.817692 -0.667962,1.996381 -2.157301,3.561732 -3.822165,4.017239 -1.460677,0.399643 -2.680227,0.164055 -3.587383,-0.692992 L 11.37574,15.37083 11.33929,15.531997 c -0.09042,0.39985 -0.165817,0.682247 -0.453863,1.699963 -0.561764,1.984817 -0.697483,2.282271 -1.6489279,3.61391 -0.499238,0.698731 -0.767291,0.937066 -0.829037,0.737126 z"
     id="path4159"
     inkscape:connector-curvature="0" /></svg>