<?xml version="1.0" encoding="UTF-8" standalone="no"?>
<!-- Created with Inkscape (http://www.inkscape.org/) -->

<svg
   xmlns:dc="http://purl.org/dc/elements/1.1/"
   xmlns:cc="http://creativecommons.org/ns#"
   xmlns:rdf="http://www.w3.org/1999/02/22-rdf-syntax-ns#"
   xmlns:svg="http://www.w3.org/2000/svg"
   xmlns="http://www.w3.org/2000/svg"
   xmlns:sodipodi="http://sodipodi.sourceforge.net/DTD/sodipodi-0.dtd"
   xmlns:inkscape="http://www.inkscape.org/namespaces/inkscape"
   width="318.52499"
   height="112.608"
   viewBox="0 0 318.52501 112.608"
   id="svg4145"
   version="1.1"
   inkscape:version="0.91 r13725"
   sodipodi:docname="AOAT_Logo.svg">
  <defs
     id="defs4147" />
  <sodipodi:namedview
     id="base"
     pagecolor="#ffffff"
     bordercolor="#666666"
     borderopacity="1.0"
     inkscape:pageopacity="0.0"
     inkscape:pageshadow="2"
     inkscape:zoom="0.98994949"
     inkscape:cx="457.93312"
     inkscape:cy="275.15128"
     inkscape:document-units="px"
     inkscape:current-layer="layer1"
     showgrid="false"
     units="px"
     inkscape:window-width="1920"
     inkscape:window-height="1017"
     inkscape:window-x="-8"
     inkscape:window-y="-8"
     inkscape:window-maximized="1" />
  <metadata
     id="metadata4150">
    <rdf:RDF>
      <cc:Work
         rdf:about="">
        <dc:format>image/svg+xml</dc:format>
        <dc:type
           rdf:resource="http://purl.org/dc/dcmitype/StillImage" />
        <dc:title />
      </cc:Work>
    </rdf:RDF>
  </metadata>
  <g
     inkscape:label="Layer 1"
     inkscape:groupmode="layer"
     id="layer1"
     transform="translate(0,-939.75433)">
    <path
       style="color:#000000;clip-rule:nonzero;display:inline;overflow:visible;visibility:visible;opacity:1;isolation:auto;mix-blend-mode:normal;color-interpolation:sRGB;color-interpolation-filters:linearRGB;solid-color:#000000;solid-opacity:1;fill:#ffffff;fill-opacity:1;fill-rule:nonzero;stroke:none;stroke-width:1;stroke-linecap:butt;stroke-linejoin:miter;stroke-miterlimit:4;stroke-dasharray:none;stroke-dashoffset:0;stroke-opacity:1;color-rendering:auto;image-rendering:auto;shape-rendering:auto;text-rendering:auto;enable-background:accumulate"
       d="m 0.24186,1051.3906 c 0.13302,-0.5345 7.53331,-25.3567 16.4451,-55.16049 8.91179,-29.80379 16.34935,-54.70333 16.52791,-55.33231 l 0.32465,-1.14359 142.49276,0 142.49275,0 0,10.90812 0,10.90812 -18.64937,0 -18.64936,0 0,45.39185 0,45.3918 -12.49155,0 -12.49156,0 0,-45.5677 0,-45.56783 -15.21858,0.0416 c -8.37023,0.0229 -15.62813,0.14166 -16.12869,0.26391 l -0.9101,0.22227 13.47732,44.86405 c 7.41252,24.6752 13.48286,45.062 13.48962,45.3039 0.01,0.3448 -3.06116,0.4398 -14.21491,0.4398 -13.24386,0 -14.24015,-0.043 -14.41435,-0.6158 -0.84177,-2.7699 -8.30528,-28.3361 -8.30528,-28.4496 0,-0.08 -8.34265,-0.1054 -18.53922,-0.055 l -18.53922,0.091 -4.22244,14.5148 -4.22245,14.5149 -42.96627,0 -42.96628,0 -4.15481,-13.7939 c -2.28515,-7.5866 -4.29376,-14.1593 -4.46358,-14.6059 l -0.30875,-0.8121 -18.38558,0.091 -18.38557,0.091 -4.43876,14.4268 -4.43876,14.4269 -13.99327,0.092 -13.99326,0.092 0.24186,-0.9717 z m 130.7339,-17.1694 c 5.97458,-1.3813 10.63794,-4.0986 15.15221,-8.8292 2.76581,-2.8983 3.99773,-4.6615 5.8698,-8.4013 3.55857,-7.1087 4.46768,-11.5083 4.21716,-20.40871 -0.15547,-5.52384 -0.29873,-6.7387 -1.12032,-9.50062 -1.34807,-4.53181 -3.03231,-8.22863 -5.30505,-11.64434 -9.07908,-13.64503 -25.14182,-17.80246 -38.42293,-9.9448 -2.95753,1.7498 -9.19911,8.05424 -10.97615,11.08671 -4.48715,7.65716 -6.40549,16.2582 -5.66318,25.39126 1.28821,15.8495 11.82008,29.3715 25.13256,32.268 2.91346,0.6339 8.33649,0.6256 11.1159,-0.017 l 0,0 z M 69.8656,1010.481 c 0.14779,-0.1493 -12.07524,-42.0002 -13.69398,-46.88727 -0.3045,-0.91928 -0.67471,-1.67141 -0.82272,-1.67141 -0.14799,0 -0.61849,1.14799 -1.04554,2.55109 -2.78941,9.16483 -13.40755,45.24949 -13.40755,45.56419 0,0.2116 0.19793,0.4674 0.43985,0.5683 0.55893,0.2331 28.29588,0.1117 28.52994,-0.1249 z m 140.45981,-0.088 c -0.0836,-0.2419 -3.24288,-10.91289 -7.02065,-23.71334 -3.77778,-12.80044 -7.0518,-23.72616 -7.27562,-24.27936 -0.39957,-0.98762 -0.42234,-0.95806 -1.25792,1.63324 -1.00151,3.10592 -11.24284,37.66466 -12.6505,42.68846 -0.8273,2.9525 -0.89378,3.5013 -0.45755,3.7772 0.28748,0.1819 6.69086,0.3253 14.6623,0.3283 11.16986,0 14.11989,-0.087 13.99994,-0.4345 z"
       id="path4143"
       inkscape:connector-curvature="0" />
  </g>
</svg>
