<?xml version="1.0" encoding="UTF-8" standalone="no"?>
<svg
   xmlns:dc="http://purl.org/dc/elements/1.1/"
   xmlns:cc="http://creativecommons.org/ns#"
   xmlns:rdf="http://www.w3.org/1999/02/22-rdf-syntax-ns#"
   xmlns:svg="http://www.w3.org/2000/svg"
   xmlns="http://www.w3.org/2000/svg"
   xmlns:sodipodi="http://sodipodi.sourceforge.net/DTD/sodipodi-0.dtd"
   xmlns:inkscape="http://www.inkscape.org/namespaces/inkscape"
   height="25"
   id="Layer_1"
   version="1.1"
   viewBox="0 0 25 25"
   width="25"
   xml:space="preserve"
   inkscape:version="0.91 r13725"
   sodipodi:docname="twitterSM_Icon.svg"><metadata
     id="metadata9"><rdf:RDF><cc:Work
         rdf:about=""><dc:format>image/svg+xml</dc:format><dc:type
           rdf:resource="http://purl.org/dc/dcmitype/StillImage" /><dc:title></dc:title></cc:Work></rdf:RDF></metadata><defs
     id="defs7" /><sodipodi:namedview
     pagecolor="#ffffff"
     bordercolor="#666666"
     borderopacity="1"
     objecttolerance="10"
     gridtolerance="10"
     guidetolerance="10"
     inkscape:pageopacity="0"
     inkscape:pageshadow="2"
     inkscape:window-width="1920"
     inkscape:window-height="1017"
     id="namedview5"
     showgrid="false"
     inkscape:zoom="3.5223881"
     inkscape:cx="-54.634672"
     inkscape:cy="13.446302"
     inkscape:window-x="-8"
     inkscape:window-y="-8"
     inkscape:window-maximized="1"
     inkscape:current-layer="Layer_1" /><circle
     style="color:#000000;clip-rule:nonzero;display:inline;overflow:visible;visibility:visible;opacity:1;isolation:auto;mix-blend-mode:normal;color-interpolation:sRGB;color-interpolation-filters:linearRGB;solid-color:#000000;solid-opacity:1;fill:#ffffff;fill-opacity:1;fill-rule:nonzero;stroke:none;stroke-width:1;stroke-linecap:butt;stroke-linejoin:miter;stroke-miterlimit:4;stroke-dasharray:none;stroke-dashoffset:0;stroke-opacity:1;color-rendering:auto;image-rendering:auto;shape-rendering:auto;text-rendering:auto;enable-background:accumulate"
     id="path4139"
     cx="12.5"
     cy="12.5"
     r="12.5" /><path
     style="color:#000000;clip-rule:nonzero;display:inline;overflow:visible;visibility:visible;opacity:1;isolation:auto;mix-blend-mode:normal;color-interpolation:sRGB;color-interpolation-filters:linearRGB;solid-color:#000000;solid-opacity:1;fill:#135fce;fill-opacity:1;fill-rule:nonzero;stroke:none;stroke-width:1;stroke-linecap:butt;stroke-linejoin:miter;stroke-miterlimit:4;stroke-dasharray:none;stroke-dashoffset:0;stroke-opacity:1;color-rendering:auto;image-rendering:auto;shape-rendering:auto;text-rendering:auto;enable-background:accumulate"
     d="M 9.0195264,17.3802 C 8.3581474,17.260312 7.7926814,17.071233 7.1129852,16.742698 l -0.6210292,-0.300177 0.6506,-0.04949 c 0.3578294,-0.02722 0.8635254,-0.101435 1.1237664,-0.16493 0.501259,-0.122301 1.721247,-0.699761 1.689835,-0.799858 -0.01021,-0.03253 -0.216576,-0.129038 -0.458597,-0.214462 -0.518346,-0.182961 -1.015171,-0.509283 -1.287479,-0.845643 -0.203392,-0.251234 -0.38735,-0.575006 -0.38735,-0.681749 0,-0.03817 0.182225,-0.06208 0.473162,-0.06208 0.260238,0 0.471825,-0.01996 0.470192,-0.04436 -0.0017,-0.0244 -0.162321,-0.119878 -0.357088,-0.21218 -0.463416,-0.219622 -1.014729,-0.733916 -1.203696,-1.122877 -0.1587621,-0.326785 -0.3748537,-1.078457 -0.3245079,-1.1288 0.016625,-0.01664 0.1978333,0.0219 0.4026499,0.08564 0.405554,0.126223 0.539288,0.142701 0.539288,0.06645 0,-0.0272 -0.12765,-0.208504 -0.283663,-0.402901 C 7.086156,10.30094 6.9699935,9.978262 6.9673518,9.277116 6.9656818,8.84746 6.9956018,8.596672 7.0765977,8.360361 7.1379107,8.181446 7.1971974,8.024569 7.2083474,8.011746 c 0.01112,-0.01282 0.284125,0.22994 0.606613,0.539473 1.118879,1.073928 2.2335976,1.661001 3.6916706,1.944241 0.921165,0.178942 0.870299,0.201127 0.870299,-0.379573 0,-0.278658 0.04101,-0.630089 0.09457,-0.810452 0.28539,-0.961013 1.172737,-1.680365 2.16516,-1.755246 0.634847,-0.0479 1.018662,0.05343 1.611059,0.425352 l 0.506506,0.317995 0.487686,-0.167569 c 0.268227,-0.09216 0.586638,-0.210205 0.70758,-0.262315 0.120944,-0.05211 0.2346,-0.09475 0.252571,-0.09475 0.06891,0 -0.209868,0.466687 -0.468282,0.783916 -0.148686,0.182528 -0.270339,0.36028 -0.270339,0.395005 0,0.09419 0.178935,0.07709 0.620513,-0.0593 0.218016,-0.06734 0.408562,-0.110263 0.423436,-0.09539 0.01487,0.01487 -0.225804,0.297511 -0.534838,0.628083 -0.610731,0.653291 -0.578148,0.578963 -0.655887,1.496198 -0.04162,0.491089 -0.334976,1.674709 -0.540762,2.181858 -0.340284,0.838612 -1.019749,1.810561 -1.775952,2.540433 -0.986582,0.952229 -2.066752,1.483619 -3.532737,1.737932 -0.633619,0.109918 -1.8484076,0.111186 -2.4476876,0.0025 l 0,0 z"
     id="path4137"
     inkscape:connector-curvature="0" /></svg>