<?xml version="1.0" encoding="UTF-8" standalone="no"?>
<!-- Created with Inkscape (http://www.inkscape.org/) -->

<svg
   xmlns:dc="http://purl.org/dc/elements/1.1/"
   xmlns:cc="http://creativecommons.org/ns#"
   xmlns:rdf="http://www.w3.org/1999/02/22-rdf-syntax-ns#"
   xmlns:svg="http://www.w3.org/2000/svg"
   xmlns="http://www.w3.org/2000/svg"
   xmlns:sodipodi="http://sodipodi.sourceforge.net/DTD/sodipodi-0.dtd"
   xmlns:inkscape="http://www.inkscape.org/namespaces/inkscape"
   id="svg2"
   version="1.1"
   inkscape:version="0.91 r13725"
   width="25"
   height="25"
   viewBox="0 0 25 25"
   sodipodi:docname="wordpressSM_Icon.svg">
  <metadata
     id="metadata8">
    <rdf:RDF>
      <cc:Work
         rdf:about="">
        <dc:format>image/svg+xml</dc:format>
        <dc:type
           rdf:resource="http://purl.org/dc/dcmitype/StillImage" />
        <dc:title></dc:title>
      </cc:Work>
    </rdf:RDF>
  </metadata>
  <defs
     id="defs6" />
  <sodipodi:namedview
     pagecolor="#ffffff"
     bordercolor="#666666"
     borderopacity="1"
     objecttolerance="10"
     gridtolerance="10"
     guidetolerance="10"
     inkscape:pageopacity="0"
     inkscape:pageshadow="2"
     inkscape:window-width="1920"
     inkscape:window-height="1017"
     id="namedview4"
     showgrid="false"
     inkscape:zoom="5.3400704"
     inkscape:cx="-2.6981053"
     inkscape:cy="32.684613"
     inkscape:window-x="-8"
     inkscape:window-y="-8"
     inkscape:window-maximized="1"
     inkscape:current-layer="svg2" />
  <circle
     style="color:#000000;clip-rule:nonzero;display:inline;overflow:visible;visibility:visible;opacity:1;isolation:auto;mix-blend-mode:normal;color-interpolation:sRGB;color-interpolation-filters:linearRGB;solid-color:#000000;solid-opacity:1;fill:#ffffff;fill-opacity:1;fill-rule:nonzero;stroke:none;stroke-width:1;stroke-linecap:butt;stroke-linejoin:miter;stroke-miterlimit:4;stroke-dasharray:none;stroke-dashoffset:0;stroke-opacity:1;color-rendering:auto;image-rendering:auto;shape-rendering:auto;text-rendering:auto;enable-background:accumulate"
     id="path4140"
     cx="-12.496204"
     cy="12.499999"
     transform="matrix(0,-1,1,0,0,0)"
     r="11.797593" />
  <path
     style="fill:#21759b;fill-opacity:1"
     d="M 11.448204,24.982745 C 9.6260852,24.76237 8.4031506,24.419086 7.0156711,23.738491 5.6928715,23.089631 4.7091522,22.385196 3.6581725,21.334217 2.6072029,20.283242 1.9027681,19.299522 1.2539033,17.976723 0.67931852,16.805358 0.30403365,15.597969 0.09411372,14.245384 c -0.12548496,-0.808555 -0.12548496,-2.697409 0,-3.505964 C 0.30403365,9.386836 0.67931852,8.179446 1.2539033,7.008082 1.9027681,5.685282 2.6072029,4.701562 3.6581725,3.650588 4.7091522,2.599608 5.6928715,1.895173 7.0156711,1.246314 8.1870357,0.671729 9.3944253,0.296444 10.747014,0.086524 c 0.808555,-0.12549 2.697404,-0.12549 3.505959,0 1.352605,0.20992 2.560005,0.585205 3.731354,1.15979 1.322799,0.648859 2.306499,1.353294 3.357499,2.404274 1.05095,1.050974 1.7554,2.034694 2.404249,3.357494 0.5746,1.171364 0.949899,2.378754 1.1598,3.731338 0.1255,0.808555 0.1255,2.697409 0,3.505964 -0.209901,1.352585 -0.5852,2.559974 -1.1598,3.731339 -0.648849,1.322799 -1.353299,2.306519 -2.404249,3.357494 -1.051,1.050979 -2.0347,1.755414 -3.357499,2.404274 -1.15505,0.566575 -2.376249,0.948674 -3.681269,1.151824 -0.50361,0.0784 -2.449864,0.14141 -2.854854,0.09243 z m 2.628954,-1.353114 c 0.51292,-0.07052 1.67137,-0.340735 1.996469,-0.46568 0.10735,-0.04125 0.134201,-0.0765 0.107951,-0.141845 -0.019,-0.0478 -0.8006,-2.183019 -1.73645,-4.744873 -0.93586,-2.561854 -1.716924,-4.673294 -1.735699,-4.692094 -0.02795,-0.02795 -3.3647987,9.575477 -3.3647987,9.683787 0,0.03935 0.9292697,0.261155 1.4274237,0.340745 0.99772,0.1594 2.2365,0.166885 3.305104,0.01995 z M 7.5415659,22.538466 c 0,-0.0297 -5.3077079,-14.569105 -5.3247829,-14.586175 -0.03035,-0.03035 -0.3980949,0.979795 -0.5389698,1.48051 -0.9663697,3.434889 -0.2567299,7.109492 1.9174543,9.928806 0.9225847,1.19634 2.187709,2.279145 3.4955336,2.991804 0.3566498,0.194345 0.4507648,0.232985 0.4507648,0.185055 z m 11.2191111,-0.70523 c 2.304799,-1.549104 3.939349,-3.864413 4.633748,-6.563612 0.2504,-0.973335 0.33955,-1.701345 0.340001,-2.777219 0,-1.732615 -0.381951,-3.439974 -1.08615,-4.845129 l -0.2068,-0.412589 0,0.963529 c -0.005,1.324625 -0.164551,2.210419 -0.651701,3.580784 -0.397598,1.118465 -3.577648,10.317671 -3.577648,10.349376 0,0.0641 0.0813,0.02055 0.551,-0.29514 z M 11.295045,9.644136 C 10.818379,8.332041 10.423299,7.251222 10.417084,7.242317 10.410884,7.233417 10.16139,7.205217 9.8626851,7.179697 9.5639802,7.154147 9.2341403,7.109547 9.1297054,7.080567 8.7645255,6.979222 8.6902805,6.501087 9.0034254,6.267292 c 0.1305999,-0.0975 0.1585454,-0.09829 1.1765896,-0.033 1.301964,0.08353 2.945588,0.08309 4.239264,-0.001 0.791349,-0.05152 1.016299,-0.05202 1.108899,-0.0025 0.203901,0.10912 0.290801,0.44005 0.17325,0.6597 -0.0846,0.158045 -0.336,0.23414 -0.90155,0.272915 -0.287,0.0197 -0.568504,0.04915 -0.625509,0.06549 -0.09786,0.02805 0.0089,0.363714 1.912958,6.014877 1.10915,3.291849 2.0192,5.996443 2.02235,6.010218 0.005,0.0138 0.1522,-0.459529 0.331301,-1.051789 0.179099,-0.592255 0.550549,-1.816765 0.825449,-2.721124 0.77945,-2.564424 0.891099,-3.134689 0.79625,-4.067149 -0.09935,-0.976535 -0.41,-1.782419 -1.177001,-3.053174 -0.463049,-0.767125 -0.650399,-1.163939 -0.751049,-1.590859 -0.29775,-1.262935 0.449,-2.448559 1.625799,-2.581224 l 0.3135,-0.03535 -0.463249,-0.374255 c -1.2955,-1.04659 -2.76335,-1.78549 -4.338349,-2.183919 -0.98818,-0.249975 -1.702115,-0.33668 -2.772334,-0.33668 -1.070215,0 -1.78416,0.08671 -2.7723439,0.33668 C 7.259316,2.219558 5.0499518,3.692803 3.5038325,5.745287 l -0.3822548,0.507445 0.1429999,0.04765 c 0.130485,0.0435 1.8067042,-0.0086 3.2830136,-0.10215 0.4725149,-0.0299 0.4864949,-0.02765 0.6135448,0.09939 0.180865,0.180865 0.183575,0.51754 0.0055,0.68482 -0.1062549,0.09982 -0.2034799,0.123555 -0.6636247,0.16198 -0.6781098,0.05663 -0.8647347,0.08447 -0.8644847,0.128955 0,0.0327 3.9714836,11.863865 4.0382786,12.03068 0.01655,0.04135 0.5824148,-1.578474 1.2574838,-3.599543 l 1.22741,-3.674669 -0.866659,-2.385629 z"
     id="path4138"
     inkscape:connector-curvature="0" />
</svg>
